<svg width="34" height="34" viewBox="0 0 34 34" fill="none" xmlns="http://www.w3.org/2000/svg">
<circle cx="17" cy="17" r="16.75" fill="#EFF4FB" stroke="#E2E8F0" stroke-width="0.5"/>
<path d="M24.2 22.9343L23.6375 22.0624C23.525 21.8937 23.4688 21.7249 23.4688 21.528V15.678C23.4688 14.0187 22.7656 12.4718 21.4719 11.3187C20.4313 10.3905 19.0813 9.7999 17.6469 9.6874V9.1249C17.6469 8.7874 17.3656 8.47803 17 8.47803C16.6625 8.47803 16.3531 8.75928 16.3531 9.1249V9.65928C16.2969 9.65928 16.2406 9.65928 16.1844 9.6874C12.9219 10.053 10.475 12.6687 10.475 15.7905V21.528C10.4469 21.8093 10.3906 21.9499 10.3344 22.0343L9.8 22.9343C9.63125 23.2155 9.63125 23.553 9.8 23.8343C9.96875 24.0874 10.25 24.2562 10.5594 24.2562H16.3813V24.8749C16.3813 25.2124 16.6625 25.5218 17.0281 25.5218C17.3656 25.5218 17.675 25.2405 17.675 24.8749V24.2562H23.4688C23.7781 24.2562 24.0594 24.0874 24.2281 23.8343C24.3969 23.553 24.3969 23.2155 24.2 22.9343ZM11.2344 22.9905L11.4313 22.653C11.6 22.3718 11.6844 22.0343 11.7406 21.6405V15.7905C11.7406 13.3155 13.7094 11.2343 16.325 10.953C17.9281 10.7843 19.5031 11.2624 20.6563 12.2749C21.6688 13.1749 22.2313 14.3843 22.2313 15.678V21.528C22.2313 21.9499 22.3438 22.3437 22.5969 22.7374L22.7656 22.9905H11.2344Z" fill="#64748B"/>
</svg>
